<?xml version="1.0" standalone="no"?>
<!DOCTYPE svg PUBLIC "-//W3C//DTD SVG 20010904//EN"
 "http://www.w3.org/TR/2001/REC-SVG-20010904/DTD/svg10.dtd">
<svg version="1.0" xmlns="http://www.w3.org/2000/svg"
 width="359.000000pt" height="50.000000pt" viewBox="0 0 359.000000 50.000000"
 preserveAspectRatio="xMidYMid meet">

  <g transform="translate(0.000000,50.000000) scale(0.100000,-0.100000)"
  fill="#000000" stroke="none">
    <path d="M523 433 c9 -11 17 -32 17 -46 0 -28 15 -37 23 -14 8 21 27 -6 34
-46 4 -24 2 -37 -6 -37 -6 0 -11 -6 -11 -13 0 -8 -14 -42 -31 -76 -17 -34 -29
-68 -26 -75 3 -8 0 -19 -6 -25 -8 -8 -6 -11 9 -11 17 0 17 -2 -6 -21 -17 -14
-19 -17 -5 -11 28 14 69 61 91 102 46 90 4 238 -81 282 -19 11 -19 10 -2 -9z"/>
    <path d="M790 444 c0 -3 16 -33 35 -65 28 -49 35 -70 35 -115 l0 -54 35 0 c35
0 35 0 35 45 0 32 10 66 36 117 l36 71 38 -64 c32 -52 39 -73 40 -116 l0 -53
35 0 35 0 0 50 c0 38 8 67 32 113 18 34 34 65 36 70 2 4 -10 7 -27 7 -26 0
-34 -6 -48 -35 -9 -19 -20 -35 -23 -35 -3 0 -14 16 -23 35 l-17 35 -69 0 c-67
0 -69 -1 -81 -30 -18 -44 -28 -45 -47 -6 -15 32 -21 36 -55 36 -21 0 -38 -3
-38 -6z"/>
    <path d="M1240 330 l0 -120 30 0 30 0 0 73 0 72 42 -72 c39 -67 44 -73 75 -73
l33 0 0 120 0 120 -30 0 -30 0 0 -62 0 -63 -40 63 c-37 57 -44 62 -75 62 l-35
0 0 -120z"/>
    <path d="M457 363 c-13 -12 -7 -39 13 -56 11 -9 20 -27 20 -39 0 -13 4 -18 8
-13 4 6 17 16 30 23 33 18 28 -4 -9 -39 -18 -16 -29 -36 -27 -46 3 -14 11 -8
35 25 39 53 41 106 6 130 -21 13 -23 13 -23 -4 0 -16 -2 -15 -23 4 -13 12 -27
19 -30 15z"/>
    <path d="M183 323 c-31 -74 8 -207 73 -250 20 -13 21 -12 19 43 -2 51 -5 57
-34 75 -36 22 -40 29 -11 22 19 -5 20 -3 9 21 -7 15 -18 25 -24 22 -8 -3 -10
12 -7 50 2 30 1 54 -2 54 -4 0 -14 -17 -23 -37z"/>
    <path d="M370 329 c-30 -14 -56 -18 -78 -14 -27 5 -34 2 -43 -19 -10 -20 -8
-31 11 -60 12 -20 27 -36 33 -36 7 0 25 27 41 60 16 33 35 60 43 60 17 0 16
-9 -2 -53 -17 -41 -21 -82 -6 -58 5 7 14 10 20 7 12 -8 14 2 11 45 0 15 6 34
15 43 10 10 13 21 8 30 -7 13 -15 12 -53 -5z"/>
    <path d="M230 329 c0 -5 5 -7 10 -4 6 3 10 8 10 11 0 2 -4 4 -10 4 -5 0 -10
-5 -10 -11z"/>
    <path d="M2780 180 c0 -5 5 -10 10 -10 6 0 10 5 10 10 0 6 -4 10 -10 10 -5 0
-10 -4 -10 -10z"/>
    <path d="M850 106 c0 -62 14 -79 62 -74 l33 3 3 63 c2 38 -1 62 -8 62 -5 0
-10 -20 -10 -44 0 -41 -19 -74 -33 -59 -4 3 -7 28 -7 55 0 41 -3 48 -20 48
-18 0 -20 -7 -20 -54z"/>
    <path d="M980 96 l0 -66 46 0 c51 0 59 22 10 28 -26 3 -27 6 -25 50 3 38 0 48
-14 50 -15 3 -17 -6 -17 -62z"/>
    <path d="M1080 106 c0 -62 14 -79 62 -74 l33 3 3 63 c2 38 -1 62 -8 62 -5 0
-10 -20 -10 -44 0 -41 -19 -74 -33 -59 -4 3 -7 28 -7 55 0 41 -3 48 -20 48
-18 0 -20 -7 -20 -54z"/>
    <path d="M1215 144 c-27 -28 -14 -52 38 -68 10 -3 16 -10 12 -16 -4 -6 -15 -5
-30 2 -30 13 -43 5 -25 -17 7 -8 27 -15 45 -15 62 0 75 58 17 75 -36 10 -45
30 -8 21 28 -7 40 2 25 21 -16 18 -54 16 -74 -3z"/>
    <path d="M1330 95 l0 -65 59 0 c33 0 63 5 66 10 8 13 45 13 45 0 0 -5 9 -10
21 -10 13 0 19 5 17 13 -3 6 -13 36 -22 65 -25 75 -49 72 -72 -8 -9 -33 -21
-60 -25 -60 -5 0 -9 5 -9 10 0 6 -11 10 -25 10 -23 0 -25 3 -25 50 0 38 -4 50
-15 50 -12 0 -15 -14 -15 -65z m160 -6 c0 -5 -4 -9 -10 -9 -5 0 -10 7 -10 16
0 8 5 12 10 9 6 -3 10 -10 10 -16z"/>
    <path d="M1560 95 c0 -51 3 -65 15 -65 9 0 15 9 15 25 0 32 14 32 28 0 7 -15
20 -25 32 -25 17 0 18 3 8 25 -9 19 -9 28 0 37 33 33 1 68 -62 68 l-36 0 0
-65z m68 23 c-3 -7 -11 -13 -18 -13 -7 0 -15 6 -17 13 -3 7 4 12 17 12 13 0
20 -5 18 -12z"/>
    <path d="M1702 98 c-18 -60 -13 -83 11 -59 14 14 44 14 49 0 2 -6 11 -10 20
-8 14 4 14 10 -3 67 -15 48 -24 62 -39 62 -15 0 -23 -14 -38 -62z m48 -9 c0
-5 -4 -9 -10 -9 -5 0 -10 7 -10 16 0 8 5 12 10 9 6 -3 10 -10 10 -16z"/>
    <path d="M1820 95 c0 -51 3 -65 15 -65 9 0 15 9 15 25 0 32 18 32 26 0 4 -16
13 -25 26 -25 16 0 19 5 13 29 -3 17 -2 32 4 36 34 21 -6 65 -60 65 l-39 0 0
-65z m68 23 c-3 -7 -11 -13 -18 -13 -7 0 -15 6 -17 13 -3 7 4 12 17 12 13 0
20 -5 18 -12z"/>
    <path d="M1961 98 c-13 -43 -15 -64 -8 -67 6 -2 13 1 15 8 5 14 49 15 54 0 2
-6 11 -10 19 -8 24 6 -16 129 -42 129 -14 0 -23 -15 -38 -62z m43 -3 c3 -9 0
-15 -9 -15 -9 0 -12 6 -9 15 4 8 7 15 9 15 2 0 5 -7 9 -15z"/>
    <path d="M2086 147 c-26 -19 -16 -50 23 -68 22 -10 30 -19 22 -23 -6 -4 -18
-2 -26 4 -8 7 -22 9 -31 6 -25 -10 2 -36 36 -36 43 0 60 10 60 34 0 26 -18 46
-41 46 -10 0 -21 5 -25 12 -5 8 2 9 24 5 37 -7 51 7 23 22 -26 14 -43 14 -65
-2z"/>
    <path d="M2190 95 c0 -58 2 -65 20 -65 18 0 20 7 20 65 0 58 -2 65 -20 65 -18
0 -20 -7 -20 -65z"/>
    <path d="M2300 90 c0 -45 3 -60 14 -60 9 0 16 12 18 32 l3 33 20 -33 c30 -50
45 -42 45 28 0 63 -16 84 -22 28 l-3 -33 -20 33 c-10 17 -27 32 -37 32 -15 0
-18 -9 -18 -60z"/>
    <path d="M2455 138 c-15 -42 -35 -101 -35 -104 0 -2 7 -4 15 -4 8 0 15 5 15
10 0 14 26 13 50 -2 30 -19 33 -5 14 56 -13 41 -22 56 -36 56 -10 0 -21 -6
-23 -12z m21 -55 c-10 -10 -19 5 -10 18 6 11 8 11 12 0 2 -7 1 -15 -2 -18z"/>
    <path d="M2550 90 c0 -44 4 -60 14 -60 7 0 17 10 20 22 l7 23 16 -23 c8 -12
24 -22 34 -22 19 0 19 1 0 39 -18 34 -18 40 -5 60 14 19 13 21 0 21 -9 0 -21
-9 -28 -20 -7 -11 -16 -20 -20 -20 -5 0 -8 9 -8 20 0 11 -7 20 -15 20 -12 0
-15 -13 -15 -60z"/>
    <path d="M2670 90 l0 -60 45 0 c33 0 45 4 45 15 0 9 -9 15 -25 15 -23 0 -25 4
-25 45 0 38 -3 45 -20 45 -18 0 -20 -7 -20 -60z"/>
    <path d="M2780 90 c0 -47 3 -60 15 -60 12 0 15 13 15 60 0 47 -3 60 -15 60
-12 0 -15 -13 -15 -60z"/>
    <path d="M2830 142 c0 -5 7 -17 15 -28 8 -10 15 -34 15 -51 0 -26 4 -33 20
-33 15 0 20 7 20 28 1 15 7 38 15 52 8 14 14 28 15 33 0 14 -23 7 -36 -10 -12
-17 -13 -17 -19 0 -7 17 -45 25 -45 9z"/>
    <path d="M2965 138 c-15 -42 -35 -101 -35 -104 0 -2 7 -4 15 -4 8 0 15 5 15
10 0 14 26 13 50 -2 30 -19 33 -5 14 56 -13 41 -22 56 -36 56 -10 0 -21 -6
-23 -12z m21 -55 c-10 -10 -19 5 -10 18 6 11 8 11 12 0 2 -7 1 -15 -2 -18z"/>
    <path d="M3040 141 c0 -5 7 -11 15 -15 10 -4 15 -20 15 -51 0 -33 4 -45 15
-45 11 0 15 12 15 45 0 31 5 47 15 51 30 12 14 24 -30 24 -25 0 -45 -4 -45 -9z"/>
  </g>
</svg>