<?xml version="1.0" standalone="no"?>
<!DOCTYPE svg PUBLIC "-//W3C//DTD SVG 20010904//EN"
 "http://www.w3.org/TR/2001/REC-SVG-20010904/DTD/svg10.dtd">
<svg version="1.0" xmlns="http://www.w3.org/2000/svg"
 width="2804.000000pt" height="1026.000000pt" viewBox="0 0 2804.000000 1026.000000"
 preserveAspectRatio="xMidYMid meet">

<g transform="translate(0.000000,1026.000000) scale(0.100000,-0.100000)"
fill="#000000" stroke="none">
<path d="M13601 10036 c-11 -37 -23 -78 -25 -91 -2 -13 -9 -33 -16 -45 -6 -11
-8 -31 -4 -43 3 -12 3 -19 -1 -14 -7 6 -92 -182 -99 -218 -1 -5 -10 -25 -19
-43 -10 -18 -15 -38 -11 -44 4 -6 3 -8 -3 -5 -6 4 -20 -14 -32 -41 -11 -26
-37 -75 -56 -110 -20 -34 -33 -68 -29 -74 4 -6 3 -8 -4 -4 -11 7 -62 -76 -62
-102 0 -8 -3 -12 -7 -9 -6 7 -67 -89 -68 -108 0 -6 -12 -24 -28 -40 -15 -17
-25 -36 -22 -42 2 -7 -1 -12 -7 -10 -7 1 -14 -6 -16 -17 -2 -11 0 -16 7 -12 6
4 11 3 11 -3 0 -16 -18 -22 -23 -9 -2 7 -8 10 -12 6 -4 -4 -2 -16 6 -25 13
-16 12 -17 -3 -5 -14 11 -18 10 -29 -10 -7 -13 -12 -26 -11 -30 1 -5 -2 -8 -8
-8 -15 0 -112 -149 -104 -162 4 -6 3 -8 -3 -5 -6 4 -23 -9 -37 -28 -15 -19
-25 -35 -22 -35 4 0 -3 -9 -14 -20 -12 -12 -18 -26 -14 -32 4 -6 3 -8 -4 -4
-6 3 -20 -7 -31 -23 -23 -31 -27 -46 -11 -36 6 3 7 -1 3 -10 -4 -11 -8 -13
-12 -6 -4 6 -20 -8 -39 -34 -40 -58 -41 -71 0 -25 16 19 26 26 20 15 -12 -24
-52 -62 -52 -50 0 10 -25 -16 -63 -68 -15 -20 -26 -41 -22 -46 3 -5 0 -13 -6
-17 -8 -5 -9 -3 -4 7 8 12 6 12 -8 0 -14 -11 -15 -16 -5 -29 10 -12 10 -14 1
-8 -17 9 -74 -54 -69 -76 3 -11 -1 -15 -11 -11 -12 5 -14 1 -8 -18 4 -16 3
-20 -3 -11 -7 11 -14 7 -32 -17 -12 -18 -19 -38 -16 -46 3 -9 0 -12 -8 -9 -7
3 -25 -14 -42 -38 -16 -24 -46 -67 -67 -96 -21 -29 -35 -58 -31 -64 4 -7 3 -8
-5 -4 -6 4 -14 0 -18 -11 -4 -10 -9 -20 -13 -23 -16 -14 -44 -67 -42 -79 2 -7
-1 -10 -6 -7 -13 8 -45 -42 -36 -57 4 -7 4 -9 -1 -5 -11 11 -84 -104 -77 -122
3 -8 1 -12 -3 -8 -10 9 -22 -7 -64 -85 -17 -32 -28 -63 -25 -69 5 -7 2 -8 -6
-3 -10 6 -12 4 -7 -9 4 -10 3 -15 -3 -11 -12 7 -72 -123 -63 -138 3 -5 2 -7
-4 -4 -22 14 -125 -259 -169 -449 -33 -146 -44 -412 -24 -583 74 -632 473
-1201 1037 -1481 326 -161 679 -227 1021 -189 500 54 930 287 1259 680 195
234 344 549 403 855 71 367 31 724 -117 1058 -15 33 -31 63 -35 64 -5 2 -6 8
-2 13 3 5 0 9 -5 9 -6 0 -10 3 -10 8 3 20 -2 32 -13 26 -6 -4 -8 -3 -4 4 9 14
-25 83 -37 75 -6 -4 -7 -1 -2 6 4 7 -3 23 -16 38 -13 15 -18 23 -10 18 17 -10
7 10 -20 40 -17 19 -19 24 -19 43 0 5 -10 19 -22 32 -13 14 -21 25 -18 25 2 0
-11 26 -29 58 -18 31 -36 55 -41 52 -4 -3 -7 3 -6 13 0 9 -5 16 -12 14 -7 -1
-12 3 -10 10 4 22 -22 60 -37 54 -8 -3 -17 0 -21 6 -4 6 -3 8 4 4 6 -3 13 -2
17 4 3 5 1 10 -4 10 -6 0 -10 5 -9 12 2 7 -2 12 -9 13 -6 0 -15 4 -20 9 -5 5
-3 6 5 2 19 -11 14 9 -8 29 -11 10 -20 24 -20 30 0 7 -13 27 -29 44 -15 16
-27 32 -24 34 2 2 -4 10 -14 18 -9 8 -14 9 -10 3 3 -6 1 -11 -6 -11 -7 0 -13
8 -13 18 0 10 4 15 8 13 13 -9 9 2 -11 24 -10 12 -21 18 -25 15 -4 -4 -4 0 -1
9 4 9 2 19 -4 22 -5 4 -31 38 -57 77 -29 44 -51 68 -60 65 -7 -3 -16 0 -20 6
-4 7 -10 6 -16 -3 -8 -11 -9 -11 -5 1 2 8 0 24 -5 35 -6 11 1 7 16 -10 38 -45
31 -12 -10 46 -28 38 -39 47 -46 37 -7 -9 -8 -7 -4 8 4 12 -1 28 -12 40 -9 10
-25 32 -36 48 -14 23 -20 26 -28 15 -8 -11 -8 -10 -4 4 5 17 -46 107 -60 107
-3 0 -3 -4 0 -8 3 -5 -1 -9 -9 -9 -12 0 -12 3 -3 15 10 11 8 18 -11 33 -13 11
-21 19 -18 19 4 0 -19 35 -49 78 -30 42 -60 85 -67 95 -11 17 -33 25 -23 8 7
-11 -21 -8 -31 4 -4 4 -3 5 3 2 7 -4 17 0 23 7 9 11 8 17 -7 28 -11 7 -20 18
-21 23 0 6 -10 10 -20 10 -28 0 -36 12 -20 31 11 13 11 18 2 21 -7 3 -13 10
-13 17 0 6 -13 27 -30 46 -16 19 -30 40 -30 45 -1 20 -97 155 -105 148 -4 -5
-5 -3 -1 4 6 11 -9 49 -25 63 -3 3 -8 13 -12 23 -4 11 -12 15 -18 11 -8 -4 -9
-3 -5 4 4 6 -5 33 -19 59 -14 26 -25 43 -26 38 0 -11 -20 32 -25 54 -3 18 -25
31 -38 24 -5 -3 -6 -1 -2 6 4 6 12 9 17 5 9 -5 -35 80 -54 104 -5 6 -6 12 -2
12 4 0 -5 20 -19 44 -14 25 -26 52 -26 61 0 9 -4 13 -10 10 -5 -3 -7 0 -4 9 3
9 -5 24 -20 37 -14 13 -26 30 -26 38 1 11 6 8 16 -9 10 -17 13 -18 9 -5 -4 11
-10 28 -12 38 -3 9 -10 17 -16 17 -6 0 -8 3 -4 6 4 5 -19 86 -40 134 -7 17 -6
13 -31 110 l-20 75 -21 -69z m26 -58 c-3 -8 -6 -5 -6 6 -1 11 2 17 5 13 3 -3
4 -12 1 -19z m-127 -363 c0 -5 -5 -3 -10 5 -5 8 -10 20 -10 25 0 6 5 3 10 -5
5 -8 10 -19 10 -25z m-72 -120 c-3 -3 -9 2 -12 12 -6 14 -5 15 5 6 7 -7 10
-15 7 -18z m-159 -296 c-5 -10 -6 -24 -3 -32 3 -8 1 -18 -5 -22 -7 -4 -8 0 -4
11 5 12 3 15 -6 9 -10 -6 -11 -3 -2 14 7 12 10 25 7 30 -3 4 1 8 9 8 10 0 11
-5 4 -18z m800 -123 c-3 -3 -11 5 -18 17 -13 21 -12 21 5 5 10 -10 16 -20 13
-22z m-912 -48 c-3 -8 -6 -5 -6 6 -1 11 2 17 5 13 3 -3 4 -12 1 -19z m973 -32
c0 -3 -4 -8 -10 -11 -5 -3 -10 -1 -10 4 0 6 5 11 10 11 6 0 10 -2 10 -4z
m-1017 -71 c-3 -9 -8 -14 -10 -11 -3 3 -2 9 2 15 9 16 15 13 8 -4z m-84 -124
c-2 -6 -10 2 -17 17 -11 25 -11 25 4 10 9 -9 15 -21 13 -27z m601 -62 c0 -6 7
-8 16 -5 14 5 15 4 4 -9 -12 -14 -7 -19 13 -16 5 1 6 -3 2 -9 -8 -13 14 -52
26 -45 5 4 9 3 8 -2 -3 -20 2 -34 11 -28 6 3 7 -1 4 -9 -3 -9 -1 -16 5 -16 6
0 11 -5 11 -10 0 -14 56 -90 62 -85 3 3 5 -1 5 -8 0 -12 52 -97 60 -97 2 0 2
4 -1 8 -3 5 1 9 9 9 11 0 12 -3 3 -14 -9 -11 -7 -18 5 -31 16 -15 18 -15 33 3
15 19 15 18 1 -6 -15 -25 -14 -28 14 -60 18 -19 28 -26 25 -16 -4 11 -2 16 5
12 5 -4 7 -15 4 -24 -3 -11 3 -28 15 -42 17 -21 19 -21 14 -4 -4 15 -4 17 4 6
6 -8 8 -20 5 -26 -2 -7 8 -25 23 -41 14 -16 20 -20 13 -9 -13 18 -13 19 3 6
10 -7 15 -18 11 -24 -3 -5 2 -16 11 -23 10 -7 16 -14 15 -16 -7 -8 45 -67 54
-61 6 4 8 0 4 -10 -3 -9 -2 -19 3 -22 4 -3 10 0 12 7 3 7 7 5 11 -6 4 -10 3
-15 -3 -11 -25 16 7 -35 57 -90 12 -14 32 -42 45 -65 19 -30 27 -37 36 -28 19
19 14 32 -5 17 -16 -13 -17 -12 -4 4 19 24 37 7 22 -21 -9 -17 -3 -31 36 -89
25 -37 56 -79 67 -93 12 -14 27 -37 34 -52 6 -16 16 -28 22 -28 5 0 10 -5 10
-11 0 -17 41 -70 50 -64 4 3 7 -3 6 -13 0 -9 5 -16 12 -14 8 1 10 -2 7 -8 -7
-11 34 -80 47 -80 3 0 8 7 10 15 2 10 7 6 15 -11 10 -21 9 -23 -1 -15 -18 15
-27 2 -15 -21 7 -14 14 -16 23 -9 8 7 12 5 12 -9 0 -10 -4 -17 -7 -14 -4 2 9
-24 29 -60 20 -35 41 -61 46 -58 5 3 6 0 2 -6 -9 -15 12 -54 24 -47 6 4 7 -1
3 -11 -5 -13 -3 -15 7 -9 8 5 11 4 7 -2 -9 -14 27 -86 38 -76 4 4 5 0 2 -10
-10 -26 9 -57 31 -51 13 5 14 4 3 -4 -11 -8 -6 -31 27 -128 63 -184 76 -263
69 -428 -6 -155 -23 -245 -69 -381 -230 -677 -964 -1048 -1632 -824 -462 155
-799 555 -881 1047 -13 78 -16 138 -12 245 5 158 29 268 92 424 19 47 32 91
28 97 -3 6 -3 8 2 4 9 -9 77 119 77 145 -1 9 3 15 8 12 4 -3 11 2 14 11 4 10
2 13 -7 9 -6 -4 -5 -1 4 7 18 15 72 98 64 98 -3 0 3 10 15 22 24 26 25 35 5
35 -8 0 -17 -9 -21 -19 -3 -10 -10 -18 -15 -18 -6 0 -3 10 6 23 8 12 24 22 35
22 11 0 20 4 19 9 0 5 3 12 8 15 21 15 132 194 126 204 -3 5 -1 7 4 4 6 -4 16
0 23 8 7 8 10 15 7 15 -3 0 5 12 18 26 14 15 25 33 25 39 0 7 7 16 16 19 9 4
14 13 10 21 -3 8 -1 14 3 12 9 -2 71 76 71 89 0 4 -10 -1 -22 -12 l-23 -19 19
22 c10 13 22 20 26 18 4 -3 14 3 21 12 8 10 9 14 2 10 -6 -4 -15 -2 -19 4 -4
7 -3 9 3 6 16 -10 65 33 59 50 -3 8 -2 12 3 9 8 -5 21 11 56 65 15 24 133 182
147 198 15 17 68 90 103 143 13 20 29 39 35 43 15 9 12 28 -2 19 -8 -4 -10 -3
-5 2 5 5 14 9 20 9 7 1 11 6 10 13 -2 7 1 12 6 12 5 0 23 21 40 48 16 26 61
93 100 148 38 56 67 104 64 108 -4 3 1 6 10 6 10 0 17 -5 17 -11z m-87 -34
c-3 -9 -8 -14 -10 -11 -3 3 -2 9 2 15 9 16 15 13 8 -4z m-635 -25 c-7 -10 -14
-17 -17 -15 -4 4 18 35 25 35 2 0 -1 -9 -8 -20z m552 -84 c0 -12 6 -28 13 -36
10 -12 9 -12 -5 -2 -12 10 -17 10 -20 1 -2 -7 -4 6 -4 28 1 23 4 39 9 36 4 -2
7 -14 7 -27z m895 -5 c-3 -6 -11 -11 -16 -11 -5 0 -4 6 3 14 14 16 24 13 13
-3z m26 -4 c-10 -9 -11 -8 -5 6 3 10 9 15 12 12 3 -3 0 -11 -7 -18z m-554 -79
c-3 -7 -5 -2 -5 12 0 14 2 19 5 13 2 -7 2 -19 0 -25z m596 7 c-3 -9 -8 -14
-10 -11 -3 3 -2 9 2 15 9 16 15 13 8 -4z m-1017 -27 c5 -7 3 -8 -6 -3 -10 6
-12 4 -6 -11 5 -14 4 -16 -5 -7 -6 6 -8 16 -5 22 9 14 13 14 22 -1z m-641 -57
c-3 -6 -11 -11 -16 -11 -5 0 -4 6 3 14 14 16 24 13 13 -3z m1136 -34 c-10 -9
-11 -8 -5 6 3 10 9 15 12 12 3 -3 0 -11 -7 -18z m596 1 c-3 -8 -6 -5 -6 6 -1
11 2 17 5 13 3 -3 4 -12 1 -19z m-1783 -4 c4 -9 2 -13 -5 -8 -7 4 -9 0 -5 -14
4 -11 2 -23 -3 -27 -7 -3 -8 0 -5 10 4 9 3 15 -2 14 -21 -4 -23 2 -6 20 9 11
18 20 18 20 1 1 5 -6 8 -15z m619 -19 c-3 -9 -8 -14 -10 -11 -3 3 -2 9 2 15 9
16 15 13 8 -4z m-19 -50 c-4 -8 -11 -12 -16 -9 -6 4 -5 10 3 15 19 12 19 11
13 -6z m1271 -15 c-11 -17 15 -42 30 -30 9 8 14 7 18 -3 5 -12 -1 -13 -44 -8
-18 2 -20 51 -3 51 3 0 2 -5 -1 -10z m-1344 -67 c13 -16 12 -17 -3 -4 -21 15
-24 2 -5 -19 10 -12 9 -12 -4 -2 -9 6 -19 8 -24 4 -4 -4 -2 3 4 16 14 27 15
27 32 5z m-81 -73 c0 -5 -5 -10 -11 -10 -5 0 -7 5 -4 10 3 6 8 10 11 10 2 0 4
-4 4 -10z m1583 -53 c3 -8 -1 -14 -8 -14 -7 0 -11 6 -8 14 3 7 6 13 8 13 2 0
5 -6 8 -13z m-600 -35 c-3 -7 -9 -10 -12 -5 -3 4 -10 11 -15 15 -4 4 1 6 12 5
12 -1 18 -6 15 -15z m-1670 -39 c-3 -7 -9 -10 -14 -7 -14 8 -11 21 5 21 8 0
12 -6 9 -14z m584 -5 c-3 -8 -6 -5 -6 6 -1 11 2 17 5 13 3 -3 4 -12 1 -19z
m43 15 c0 -5 -5 -15 -10 -23 -8 -12 -10 -11 -10 8 0 12 5 22 10 22 6 0 10 -3
10 -7z m1097 -105 c-3 -7 -5 -2 -5 12 0 14 2 19 5 13 2 -7 2 -19 0 -25z m30
-2 c-3 -7 -1 -18 5 -24 7 -7 6 -10 -6 -8 -9 1 -16 6 -15 12 3 16 11 34 16 34
3 0 3 -6 0 -14z m-1214 -26 c10 -12 9 -12 -4 -2 -10 8 -19 8 -26 1 -6 -6 -10
-5 -10 5 0 17 23 15 40 -4z m1917 -72 c0 -7 -6 -2 -13 12 -8 14 -19 24 -25 23
-6 -2 -9 4 -6 12 5 12 10 10 25 -9 10 -13 19 -30 19 -38z m-2015 1 c11 -16 1
-19 -13 -3 -7 8 -8 14 -3 14 5 0 13 -5 16 -11z m1989 -4 c3 -8 1 -15 -4 -15
-6 0 -10 7 -10 15 0 8 2 15 4 15 2 0 6 -7 10 -15z m-2594 -45 c-6 -11 -13 -20
-16 -20 -2 0 0 9 6 19 13 25 13 34 0 26 -6 -4 -7 1 -3 11 5 15 7 15 15 0 5
-10 5 -23 -2 -36z m2680 -85 c11 -13 10 -14 -4 -9 -9 3 -16 10 -16 15 0 13 6
11 20 -6z m-2763 -37 c-3 -8 -6 -5 -6 6 -1 11 2 17 5 13 3 -3 4 -12 1 -19z
m527 -74 c9 -8 16 -20 16 -26 0 -6 -9 -1 -20 12 -29 33 -25 44 4 14z m2303
-16 c-3 -7 -5 -2 -5 12 0 14 2 19 5 13 2 -7 2 -19 0 -25z m-2902 -10 c4 4 2
-3 -4 -15 -6 -13 -14 -23 -17 -23 -3 0 -2 5 1 10 4 6 1 19 -7 28 -11 15 -11
15 3 5 9 -7 19 -9 24 -5z m2955 -18 c0 -5 -2 -10 -4 -10 -3 0 -8 5 -11 10 -3
6 -1 10 4 10 6 0 11 -4 11 -10z m-2375 -19 c3 -5 2 -12 -3 -15 -5 -3 -9 1 -9
9 0 17 3 19 12 6z m1775 -26 c14 -19 14 -19 -2 -6 -10 7 -18 18 -18 24 0 6 1
8 3 6 1 -2 9 -13 17 -24z m40 -19 c0 -5 -7 -1 -15 10 -8 10 -14 24 -14 29 0 6
6 1 14 -9 8 -11 15 -24 15 -30z m-1892 -17 c-3 -8 -7 -3 -11 10 -4 17 -3 21 5
13 5 -5 8 -16 6 -23z m42 17 c0 -3 -4 -8 -10 -11 -5 -3 -10 -1 -10 4 0 6 5 11
10 11 6 0 10 -2 10 -4z m-627 -19 c3 -8 -1 -14 -8 -14 -7 0 -11 6 -8 14 3 7 6
13 8 13 2 0 5 -6 8 -13z m597 -40 c0 -7 -4 -6 -10 3 -8 12 -10 12 -10 1 0 -8
-3 -12 -6 -8 -9 9 6 28 17 22 5 -4 9 -12 9 -18z m2547 -109 c-3 -8 -6 -5 -6 6
-1 11 2 17 5 13 3 -3 4 -12 1 -19z m-3237 -35 c-11 -17 -11 -17 -6 0 3 10 6
24 7 30 0 9 2 9 5 0 3 -7 0 -20 -6 -30z"/>
<path d="M14216 8853 c-11 -11 -7 -20 9 -20 8 0 15 4 15 8 0 11 -16 20 -24 12z"/>
<path d="M15240 8102 c0 -11 32 -56 47 -65 7 -4 13 -14 13 -22 0 -9 6 -12 18
-8 13 5 15 3 5 -7 -10 -10 -8 -19 8 -42 11 -15 25 -26 30 -23 5 4 6 -1 3 -9
-4 -9 1 -18 10 -22 9 -3 13 -11 9 -17 -4 -6 -1 -7 6 -3 8 5 11 3 9 -5 -3 -17
80 -159 93 -159 5 0 9 5 9 11 0 5 -5 7 -11 3 -8 -4 -8 0 0 15 7 11 13 21 15
21 8 0 3 -51 -5 -56 -5 -3 2 -22 14 -42 13 -20 26 -45 30 -55 4 -11 12 -15 18
-11 8 4 9 3 5 -4 -9 -14 45 -113 57 -105 5 3 7 -5 5 -18 -3 -21 1 -24 25 -23
26 1 27 0 14 -20 -21 -31 -4 -70 26 -63 20 5 20 5 5 -7 -16 -12 -14 -20 27
-117 25 -57 45 -110 45 -116 0 -10 128 -13 605 -13 496 0 605 2 605 13 0 43
-24 250 -41 352 -26 156 -80 374 -127 511 l-37 109 -750 3 c-592 2 -750 0
-757 -10 -6 -10 -8 -10 -8 0 0 6 -4 12 -10 12 -5 0 -10 -3 -10 -8z m167 -189
c14 -17 14 -17 9 2 -6 20 -6 20 9 1 18 -23 19 -33 5 -41 -5 -3 -10 -11 -10
-16 0 -6 4 -7 10 -4 6 4 7 -1 3 -11 -6 -15 -7 -15 -16 1 -6 11 -5 21 2 28 13
13 15 31 2 23 -4 -3 -16 3 -26 14 -10 11 -15 20 -10 20 4 0 14 -8 22 -17z
m150 -275 c-3 -8 -6 -5 -6 6 -1 11 2 17 5 13 3 -3 4 -12 1 -19z m62 -122 c-3
-3 -11 5 -18 17 -13 21 -12 21 5 5 10 -10 16 -20 13 -22z m181 -70 c0 -3 -4
-8 -10 -11 -5 -3 -10 -1 -10 4 0 6 5 11 10 11 6 0 10 -2 10 -4z"/>
<path d="M15645 7440 c-3 -5 -1 -10 4 -10 6 0 11 5 11 10 0 6 -2 10 -4 10 -3
0 -8 -4 -11 -10z"/>
<path d="M10334 6788 c17 -273 60 -535 125 -761 17 -59 31 -110 31 -112 0 -3
203 -5 451 -5 l451 0 -6 23 c-14 51 -36 195 -47 305 -15 151 -6 386 20 527 12
61 21 116 21 123 0 9 -112 12 -526 12 l-527 0 7 -112z"/>
<path d="M11730 5116 c0 -2 8 -10 18 -17 15 -13 16 -12 3 4 -13 16 -21 21 -21
13z"/>
<path d="M11770 5066 c0 -2 8 -10 18 -17 15 -13 16 -12 3 4 -13 16 -21 21 -21
13z"/>
<path d="M12135 4680 c10 -11 20 -20 23 -20 3 0 -3 9 -13 20 -10 11 -20 20
-23 20 -3 0 3 -9 13 -20z"/>
<path d="M27509 3575 c-144 -46 -239 -173 -239 -320 0 -206 192 -365 393 -325
32 6 75 20 95 32 53 29 119 96 143 144 44 92 42 228 -6 310 -31 54 -106 121
-161 145 -60 27 -166 33 -225 14z m207 -65 c52 -22 113 -83 139 -135 26 -55
31 -151 11 -213 -50 -150 -236 -231 -378 -163 -55 26 -122 96 -146 149 -25 59
-21 167 8 225 71 141 226 199 366 137z"/>
<path d="M27460 3256 l0 -186 45 0 45 0 0 65 0 65 36 0 c57 0 71 -13 79 -75
l6 -55 43 0 42 0 -6 59 c-6 60 -29 101 -57 101 -23 0 -14 15 17 27 58 22 63
97 10 148 -29 27 -35 29 -145 33 l-115 5 0 -187z m197 98 c27 -38 -4 -81 -62
-86 l-40 -3 -3 59 -3 59 47 -6 c30 -3 53 -12 61 -23z"/>
<path d="M275 3210 c-27 -4 -67 -14 -87 -23 -56 -24 -133 -100 -159 -160 l-24
-52 0 -1335 0 -1335 26 -56 c33 -71 87 -125 158 -158 l56 -26 625 0 c613 0
627 0 712 22 384 98 612 324 695 687 24 106 24 351 -1 436 -79 270 -306 486
-572 546 -41 9 -74 19 -74 23 0 4 35 27 78 51 156 89 266 234 309 407 23 95
23 305 -1 393 -75 280 -289 484 -588 562 -79 20 -108 21 -593 24 -280 1 -532
-1 -560 -6z m890 -601 c71 -27 113 -56 152 -107 42 -56 57 -110 56 -202 -3
-138 -55 -232 -160 -287 -81 -44 -158 -54 -368 -51 l-180 3 -3 325 c-1 179 -1
329 2 335 2 6 83 9 226 7 192 -3 229 -6 275 -23z m138 -1245 c135 -30 223 -91
275 -189 24 -45 27 -60 27 -155 0 -92 -3 -112 -26 -161 -50 -107 -131 -172
-254 -204 -47 -12 -122 -15 -362 -15 l-303 0 0 370 0 370 286 0 c225 0 300 -3
357 -16z"/>
<path d="M5455 3138 c-86 -32 -154 -103 -188 -196 -18 -50 -21 -85 -25 -288
l-4 -231 -103 -5 c-86 -4 -112 -9 -159 -32 -125 -61 -183 -200 -141 -342 13
-44 28 -70 63 -105 60 -60 121 -79 249 -79 l93 0 1 -717 c0 -395 3 -749 5
-787 15 -193 125 -313 297 -324 134 -8 240 54 299 176 l33 67 3 793 3 792 109
0 c173 0 252 24 318 98 17 20 38 53 44 72 16 46 16 175 0 222 -18 52 -72 105
-138 135 -50 23 -74 26 -195 31 l-137 5 -4 241 c-3 235 -4 242 -29 296 -33 71
-79 123 -137 158 -39 22 -59 27 -137 29 -49 1 -103 -3 -120 -9z"/>
<path d="M3358 2459 c-264 -39 -533 -218 -695 -464 -284 -429 -292 -1071 -18
-1509 55 -89 172 -217 257 -282 265 -204 646 -259 916 -132 77 36 209 134 255
190 l34 41 13 -39 c50 -154 131 -223 271 -232 111 -7 181 16 241 78 87 90 82
28 86 1080 2 626 -1 948 -8 995 -18 116 -60 183 -145 229 -33 17 -57 21 -140
21 -89 0 -105 -3 -151 -27 -67 -35 -130 -107 -150 -172 l-16 -52 -77 76 c-61
61 -96 87 -171 124 -151 75 -327 101 -502 75z m313 -579 c177 -33 316 -181
381 -405 20 -69 23 -102 23 -240 0 -183 -12 -239 -75 -371 -53 -110 -122 -184
-214 -229 -115 -57 -240 -65 -362 -21 -141 49 -260 196 -314 386 -31 108 -38
290 -16 400 52 257 183 421 376 472 76 20 127 22 201 8z"/>
<path d="M9499 2455 c-281 -44 -507 -200 -610 -420 -120 -259 -83 -538 96
-720 115 -116 245 -189 545 -306 335 -130 400 -175 400 -276 -1 -62 -32 -119
-82 -144 -34 -18 -64 -24 -144 -27 -137 -6 -195 11 -399 113 -180 90 -250 111
-330 96 -88 -17 -160 -73 -207 -164 -30 -56 -31 -165 -4 -222 30 -60 141 -164
226 -212 102 -57 263 -116 390 -143 137 -29 353 -32 485 -6 115 22 264 81 354
141 288 190 399 560 256 852 -67 135 -215 259 -420 353 -38 17 -155 65 -260
107 -303 119 -365 164 -365 261 0 70 32 119 97 149 50 23 64 25 147 20 105 -6
149 -20 343 -109 130 -59 142 -63 213 -63 80 0 110 13 172 76 73 75 97 199 58
303 -90 238 -557 404 -961 341z"/>
<path d="M11620 2464 c-183 -34 -287 -74 -417 -160 -328 -217 -523 -618 -523
-1077 0 -595 318 -1066 806 -1193 127 -33 332 -38 432 -10 139 38 246 100 355
207 l69 66 9 -26 c40 -109 62 -144 115 -186 57 -42 126 -59 220 -52 119 9 184
53 233 157 l26 55 0 990 0 990 -32 67 c-52 111 -139 155 -287 146 -55 -4 -85
-12 -126 -34 -60 -33 -122 -104 -140 -161 -6 -21 -13 -44 -16 -51 -2 -8 -27
12 -63 50 -98 105 -197 163 -347 203 -58 16 -264 28 -314 19z m281 -584 c89
-17 170 -63 238 -135 246 -264 235 -800 -23 -1043 -134 -127 -328 -153 -503
-67 -128 63 -225 197 -274 381 -31 115 -31 317 -1 434 81 308 304 478 563 430z"/>
<path d="M14384 2460 c-155 -21 -284 -81 -385 -181 l-67 -66 -12 41 c-17 59
-68 121 -125 153 -45 25 -59 28 -150 28 -89 0 -105 -3 -151 -27 -64 -34 -117
-94 -146 -167 l-23 -56 -3 -905 c-2 -625 1 -925 8 -969 20 -117 80 -205 168
-248 49 -24 69 -28 142 -28 73 0 93 4 142 28 84 41 144 125 167 235 7 36 11
250 11 665 0 511 2 622 15 670 48 185 175 293 358 304 213 14 359 -77 434
-267 16 -41 18 -109 23 -720 l5 -675 26 -55 c54 -116 142 -179 259 -188 135
-9 247 55 307 176 l28 57 3 732 c3 853 4 842 -89 1032 -46 93 -63 117 -143
196 -131 130 -263 196 -460 230 -93 16 -240 18 -342 5z"/>
<path d="M6591 2415 c-100 -47 -163 -138 -181 -262 -13 -91 -13 -1178 0 -1318
27 -283 133 -481 344 -640 302 -226 914 -258 1289 -69 203 103 346 269 415
484 45 140 47 170 47 880 0 612 -2 680 -17 730 -24 75 -81 146 -148 184 -51
29 -62 31 -150 31 -82 0 -102 -4 -144 -25 -61 -31 -119 -98 -149 -170 -22 -55
-22 -59 -27 -730 -6 -734 -3 -697 -65 -795 -93 -147 -280 -216 -460 -170 -127
33 -212 104 -268 223 l-32 67 -5 680 -5 680 -33 67 c-59 120 -152 178 -287
178 -53 0 -83 -6 -124 -25z"/>
</g>
</svg>
